# xmcd
#
# Track frame offsets:
#	183
#	12803
#	26218
#	43825
#	56350
#	66128
#	77103
#	91725
#	105668
#	117573
#	138585
#	158490
#	170630
#	202693
#
# Disc length: 2847 seconds
#
# Revision: 1
# Processed by: cddbd v1.5.2PL0 Copyright (c) Steve Scherf et al.
# Submitted via: EasyCDDAExtractor 15.3.0.1
#
DISCID=b20b1d0e
DTITLE=Various Artist - The Spirit Of Blues - Vol 2
DYEAR=1993
DGENRE=Blues
TTITLE0=Howlin' Wolf - Killing Floor
TTITLE1=Muddy Waters - Rollin' And Tumblin'
TTITLE2=B.B.King - Evil Child
TTITLE3=Jimi Hendrix - Voice In The Wind
TTITLE4=John Lee Hooker - Dusty Road
TTITLE5=Sonny Boy Williamson - Got To Move
TTITLE6=Memphis Slim - I'm Crying
TTITLE7=Little Walter - Blues With A Feeling
TTITLE8=Elmore James - Pickin' The Blues
TTITLE9=Mike Bloomfield - Cherry Red
TTITLE10=Eric Burdon and The Animals - C. Jam Blues
TTITLE11=Hall and Oates - Deep River Blues
TTITLE12=Santana - Every Day I Have The Blues
TTITLE13=Canned Heat - Can't Hold On
EXTD=
EXTT0=
EXTT1=
EXTT2=
EXTT3=
EXTT4=
EXTT5=
EXTT6=
EXTT7=
EXTT8=
EXTT9=
EXTT10=
EXTT11=
EXTT12=
EXTT13=
PLAYORDER=
